#!OML:ASF F:\VICON\USERDATA\INSTALL\rory3\rory3.ASF
:FULLY-SPECIFIED
:DEGREES
650
root 3.72884 20.2321 7.0674 11.3039 -4.27901 -7.00636
lowerback 3.1852 -2.61353 3.66334
upperback -6.23096 -3.03428 3.17889
thorax -8.36183 -1.61292 1.6235
lowerneck -7.80592 -12.1733 -13.5597
upperneck 18.4198 -15.9747 5.8951
head 8.60319 -8.04437 2.36592
rclavicle -6.05532e-014 2.50469e-014
rhumerus -45.913 9.93236 -81.22
rradius 47.6358
rwrist 6.56593
rhand -25.254 -49.9104
rfingers 7.12502
rthumb 1.26628 -79.8864
lclavicle -6.05532e-014 2.50469e-014
lhumerus -49.2305 -26.7801 83.5328
lradius 65.5637
lwrist -2.83122
lhand -31.7512 -42.6819
lfingers 7.12502
lthumb -5.00851 -12.7611
rfemur -99.9159 -1.99045 28.3544
rtibia 141.686
rfoot -4.38255 -3.80122
rtoes -1.88986
lfemur -11.0434 -1.30025 -16.9608
ltibia 13.1788
lfoot 15.4346 -2.44991
ltoes -13.2698
651
root 3.70845 20.1692 7.05978 11.5327 -4.5418 -7.05638
lowerback 3.06452 -2.55751 3.81203
upperback -6.31036 -2.94966 3.21994
thorax -8.38401 -1.58042 1.57284
lowerneck -7.75932 -12.1721 -13.5685
upperneck 18.3236 -15.93 5.70417
head 8.5425 -8.04097 2.31654
rclavicle -3.98188e-014 3.51414e-014
rhumerus -45.9522 10.0553 -81.4093
rradius 47.2549
rwrist 6.03196
rhand -25.7554 -50.1934
rfingers 7.12502
rthumb 0.781946 -80.1718
lclavicle -3.98188e-014 3.51414e-014
lhumerus -49.2386 -26.4062 83.8605
lradius 64.6658
lwrist -2.85087
lhand -32.0345 -42.4716
lfingers 7.12502
lthumb -5.28203 -12.5574
rfemur -99.8673 -0.901469 28.7163
rtibia 141.467
rfoot -4.21187 -4.47608
rtoes -2.34681
lfemur -11.063 -1.33571 -16.9385
ltibia 13.0791
lfoot 15.0505 -1.91682
ltoes -13.1172
652
root 3.69591 20.0928 7.0596 11.6856 -4.83312 -6.97085
lowerback 2.96292 -2.53383 3.91159
upperback -6.36043 -2.91833 3.17628
thorax -8.38683 -1.57381 1.4653
lowerneck -7.99507 -12.0789 -13.2385
upperneck 18.3582 -15.7553 5.3968
head 8.52309 -7.95792 2.1815
rclavicle 4.05807e-014 -2.68235e-014
rhumerus -45.9662 10.0671 -81.6209
rradius 46.6792
rwrist 5.8216
rhand -26.1533 -50.0351
rfingers 7.12502
rthumb 0.39765 -80.0145
lclavicle 4.05807e-014 -2.68235e-014
lhumerus -49.3841 -25.778 84.0237
lradius 63.9807
lwrist -3.03415
lhand -31.6545 -42.4433
lfingers 7.12502
lthumb -4.91511 -12.5203
rfemur -99.6766 -0.102595 28.848
rtibia 141.242
rfoot -4.26774 -4.95793
rtoes -2.68064
lfemur -10.7354 -1.39924 -17.1136
ltibia 12.4955
lfoot 14.7871 -1.17551
ltoes -11.9723
653
root 3.68646 20.0068 7.05657 11.9492 -5.23234 -6.92606
lowerback 2.67666 -2.49545 3.99662
upperback -6.31849 -2.88064 3.18149
thorax -8.17713 -1.5604 1.40169
lowerneck -8.26433 -11.9685 -13.0774
upperneck 18.2679 -15.5717 5.34478
head 8.50343 -7.85777 2.15425
rclavicle -3.00118e-016 -2.06239e-014
rhumerus -45.6831 10.0394 -81.6929
rradius 46.283
rwrist 6.1609
rhand -25.6433 -49.5948
rfingers 7.12502
rthumb 0.890246 -79.5727
lclavicle -3.00118e-016 -2.06239e-014
lhumerus -49.389 -25.0664 84.1138
lradius 63.4117
lwrist -3.24009
lhand -31.2606 -42.2545
lfingers 7.12502
lthumb -4.53474 -12.323
rfemur -99.6653 0.970946 28.8514
rtibia 140.901
rfoot -4.20806 -5.25357
rtoes -2.77848
lfemur -10.3275 -1.40141 -17.2498
ltibia 11.4683
lfoot 14.6687 -0.176176
ltoes -10.6515
654
root 3.68213 19.9095 7.06145 12.1683 -5.6239 -6.78373
lowerback 2.03875 -2.43802 4.17614
upperback -6.0882 -2.84856 3.08687
thorax -7.56835 -1.55532 1.15364
lowerneck -8.64145 -11.8734 -13.1197
upperneck 18.1365 -15.4259 5.61047
head 8.53665 -7.75718 2.24711
rclavicle -7.24533e-014 1.94064e-014
rhumerus -45.0166 9.91112 -81.7698
rradius 45.74
rwrist 6.44254
rhand -25.3769 -49.4259
rfingers 7.12502
rthumb 1.14754 -79.4026
lclavicle -7.24533e-014 1.94064e-014
lhumerus -49.1525 -24.4758 84.0653
lradius 62.8911
lwrist -3.22768
lhand -31.012 -42.3399
lfingers 7.12502
lthumb -4.29469 -12.4035
rfemur -99.4572 1.78224 28.6412
rtibia 140.589
rfoot -4.20638 -5.39457
rtoes -3.01562
lfemur -9.7115 -1.41803 -17.5198
ltibia 10.1346
lfoot 14.5193 0.867151
ltoes -10.2783
